<svg id="Layer_1" data-name="Layer 1" xmlns="http://www.w3.org/2000/svg" xmlns:xlink="http://www.w3.org/1999/xlink" viewBox="0 0 245.92 53.08"><defs><style>.cls-1{fill:none;}.cls-2{clip-path:url(#clip-path);}.cls-3{fill:#f95630;}.cls-4{fill:#0020a5;}.cls-5{fill:#fff;}</style><clipPath id="clip-path" transform="translate(-20.54 -21.54)"><rect class="cls-1" x="19" y="20" width="250.29" height="55.16"/></clipPath></defs><title>Fun Logo Design</title><g class="cls-2"><path class="cls-3" d="M21.67,51.1A25.59,25.59,0,1,1,50.1,73.49,25.59,25.59,0,0,1,21.67,51.1" transform="translate(-20.54 -21.54)"/><path class="cls-4" d="M47.06,74.62a26.57,26.57,0,1,1,3.15-.19,26.85,26.85,0,0,1-3.15.19M22.61,51a24.64,24.64,0,1,0,5.11-18.15A24.48,24.48,0,0,0,22.61,51" transform="translate(-20.54 -21.54)"/><path class="cls-5" d="M64.39,50.72,64,47.2a2.16,2.16,0,0,0-2.14-1.9l-.52-4.36A14.29,14.29,0,0,0,41.67,29.42a4.56,4.56,0,0,0-2.84-2.18l-1.69-.48,1.41,1s1.52,1.14,1.58,2.38a14.25,14.25,0,0,0-7.2,14.14l.75,6.33a3.93,3.93,0,0,0,1.17,7.72,14.29,14.29,0,0,0,27.9-5.29,2.16,2.16,0,0,0,1.65-2.35" transform="translate(-20.54 -21.54)"/><path class="cls-3" d="M84.31,30.2l1,0,4.94-.09q6.15,0,9.21,2.78T102.5,41A11.77,11.77,0,0,1,101,47a10,10,0,0,1-4.32,4A14.93,14.93,0,0,1,90,52.4l-2.16,0-2.44,0q-3.25,0-4.85.09v-.63A4.8,4.8,0,0,0,82,51.53a1.14,1.14,0,0,0,.65-.74,6,6,0,0,0,.18-1.72V33.43a6,6,0,0,0-.18-1.72A1.14,1.14,0,0,0,82,31a4.8,4.8,0,0,0-1.52-.25V30.1q2,.11,3.8.11m3.75,20.62a1.24,1.24,0,0,0,.68.79,3.79,3.79,0,0,0,1.49.22,6.5,6.5,0,0,0,4.15-1.22A6.74,6.74,0,0,0,96.6,47a22,22,0,0,0,.67-5.91,20.24,20.24,0,0,0-.72-5.88,6.48,6.48,0,0,0-2.27-3.44,6.74,6.74,0,0,0-4.08-1.14,3.7,3.7,0,0,0-1.47.22,1.25,1.25,0,0,0-.67.79,5.84,5.84,0,0,0-.18,1.69V49.13a5.83,5.83,0,0,0,.18,1.7" transform="translate(-20.54 -21.54)"/><path class="cls-3" d="M112.52,37.05a2.38,2.38,0,0,0-1.95-.75,4.11,4.11,0,0,0-1.23.19,2.54,2.54,0,0,0-1,.58,2.83,2.83,0,0,1,1.37.92,2.44,2.44,0,0,1,.49,1.56,2.18,2.18,0,0,1-.32,1.16,2.22,2.22,0,0,1-.9.82,2.9,2.9,0,0,1-1.34.3,2.05,2.05,0,0,1-1.62-.69,2.54,2.54,0,0,1-.61-1.74,3,3,0,0,1,1.75-2.65,9.83,9.83,0,0,1,4.8-1.06q3.23,0,4.6,1.42a3.36,3.36,0,0,1,.89,1.65,12.71,12.71,0,0,1,.23,2.75v8.57a2.81,2.81,0,0,0,.15,1.08.52.52,0,0,0,.51.32,2,2,0,0,0,1.17-.54l.32.54a4.77,4.77,0,0,1-1.57.88,6.55,6.55,0,0,1-2,.28,3.17,3.17,0,0,1-2.31-.71,2.49,2.49,0,0,1-.71-1.85,5,5,0,0,1-2,1.92,5.76,5.76,0,0,1-2.66.64,4.23,4.23,0,0,1-2.88-.95A3.32,3.32,0,0,1,104.57,49a3.69,3.69,0,0,1,1.08-2.72A9.19,9.19,0,0,1,109,44.4l1.6-.61a6.41,6.41,0,0,0,2-1.05,1.57,1.57,0,0,0,.6-1.18V39.11a3.14,3.14,0,0,0-.62-2.06m0,6.5a14.07,14.07,0,0,1-1.3.89A5.74,5.74,0,0,0,109.62,46a3.86,3.86,0,0,0-.57,2.16,2.71,2.71,0,0,0,.54,1.84,1.8,1.8,0,0,0,1.42.61,2.57,2.57,0,0,0,2.14-1.29V42.85a2.71,2.71,0,0,1-.65.7" transform="translate(-20.54 -21.54)"/><path class="cls-3" d="M132.46,35.68a6.16,6.16,0,0,1,2.11.31,3.28,3.28,0,0,1,1.35.91,3.62,3.62,0,0,1,.75,1.55,11.27,11.27,0,0,1,.23,2.55v8.48a3.73,3.73,0,0,0,.2,1.37,1.23,1.23,0,0,0,.63.69,2.86,2.86,0,0,0,1.18.2v.66q-3.14-.12-4.15-.12t-4.11.12v-.66a2.16,2.16,0,0,0,1-.2,1.15,1.15,0,0,0,.53-.69,4.55,4.55,0,0,0,.16-1.37v-9.8a3.67,3.67,0,0,0-.42-2,1.68,1.68,0,0,0-1.53-.66,2.78,2.78,0,0,0-1.58.48,3.3,3.3,0,0,0-1.13,1.31,4.13,4.13,0,0,0-.41,1.85v8.77a4.36,4.36,0,0,0,.17,1.37,1.18,1.18,0,0,0,.54.69,2.11,2.11,0,0,0,1,.2v.66q-2.89-.12-3.91-.12t-4.35.12v-.66a2.93,2.93,0,0,0,1.19-.2,1.2,1.2,0,0,0,.63-.69,3.88,3.88,0,0,0,.19-1.37V39.54a3.86,3.86,0,0,0-.45-2.11,1.76,1.76,0,0,0-1.57-.65v-.66q1,.09,2,.09a20.42,20.42,0,0,0,4.6-.43V38.6q1.43-2.92,5.17-2.92" transform="translate(-20.54 -21.54)"/><path class="cls-3" d="M148.18,37.05a2.38,2.38,0,0,0-1.95-.75,4.1,4.1,0,0,0-1.23.19,2.53,2.53,0,0,0-1,.58,2.83,2.83,0,0,1,1.37.92,2.44,2.44,0,0,1,.49,1.56,2.18,2.18,0,0,1-.32,1.16,2.21,2.21,0,0,1-.9.82,2.9,2.9,0,0,1-1.34.3,2.05,2.05,0,0,1-1.62-.69,2.54,2.54,0,0,1-.61-1.74,3,3,0,0,1,1.75-2.65,9.83,9.83,0,0,1,4.8-1.06q3.23,0,4.6,1.42a3.35,3.35,0,0,1,.89,1.65,12.7,12.7,0,0,1,.23,2.75v8.57a2.83,2.83,0,0,0,.15,1.08.52.52,0,0,0,.51.32,2,2,0,0,0,1.17-.54l.32.54a4.79,4.79,0,0,1-1.57.88,6.56,6.56,0,0,1-2,.28,3.17,3.17,0,0,1-2.31-.71,2.5,2.5,0,0,1-.71-1.85,5,5,0,0,1-2,1.92,5.76,5.76,0,0,1-2.66.64,4.23,4.23,0,0,1-2.88-.95A3.32,3.32,0,0,1,140.23,49a3.69,3.69,0,0,1,1.08-2.72,9.18,9.18,0,0,1,3.34-1.91l1.6-.61a6.39,6.39,0,0,0,2-1.05,1.57,1.57,0,0,0,.6-1.18V39.11a3.14,3.14,0,0,0-.62-2.06m0,6.5a14,14,0,0,1-1.3.89A5.74,5.74,0,0,0,145.28,46a3.86,3.86,0,0,0-.57,2.16,2.71,2.71,0,0,0,.54,1.84,1.8,1.8,0,0,0,1.42.61,2.57,2.57,0,0,0,2.14-1.29V42.85a2.71,2.71,0,0,1-.65.7" transform="translate(-20.54 -21.54)"/><path class="cls-3" d="M184.33,51a4.61,4.61,0,0,0,1.32.75v.63q-2.25-.09-4.92-.09-2.08,0-4,.09v-.63a4.89,4.89,0,0,0,1.28-.18c.26-.09.38-.24.38-.43a1.79,1.79,0,0,0-.34-.8L173.47,43a8.59,8.59,0,0,0-.75-1.05,1.94,1.94,0,0,0-.64-.51,2.56,2.56,0,0,0-.81-.19v7.86a6.28,6.28,0,0,0,.17,1.72,1.11,1.11,0,0,0,.65.74,4.86,4.86,0,0,0,1.54.25v.63q-1.69-.09-4.75-.09-3.39,0-5,.09v-.63a4.81,4.81,0,0,0,1.52-.25,1.14,1.14,0,0,0,.65-.74,6,6,0,0,0,.18-1.72V33.43a6,6,0,0,0-.18-1.72,1.14,1.14,0,0,0-.65-.74,4.81,4.81,0,0,0-1.52-.25V30.1q1.58.09,5,.09,3.06,0,4.75-.09v.63a4.86,4.86,0,0,0-1.54.25,1.12,1.12,0,0,0-.65.74,6.28,6.28,0,0,0-.17,1.72v7.09a4.6,4.6,0,0,0,2.29-.77,12.69,12.69,0,0,0,2.37-2.2l1.86-2.23a4.9,4.9,0,0,0,1.43-2.91,1.44,1.44,0,0,0-.61-1.23,3.09,3.09,0,0,0-1.72-.49v-.6q2.32.09,4.68.09,1.81,0,3-.09v.6a8.52,8.52,0,0,0-4.57,3L176,38.4l7.34,11.45a5.08,5.08,0,0,0,1,1.17" transform="translate(-20.54 -21.54)"/><path class="cls-3" d="M201.91,51.09a1.76,1.76,0,0,0,1.56.65v.66q-1-.09-2-.09a19.81,19.81,0,0,0-4.6.45V49.91a5.16,5.16,0,0,1-5.08,2.94,4.34,4.34,0,0,1-3.43-1.23,3.45,3.45,0,0,1-.75-1.55,11.68,11.68,0,0,1-.22-2.54v-8a3.81,3.81,0,0,0-.45-2.11,1.76,1.76,0,0,0-1.56-.66v-.66c.67.06,1.32.09,2,.09a20.67,20.67,0,0,0,4.6-.43v13a4,4,0,0,0,.39,2,1.57,1.57,0,0,0,1.49.67,2.64,2.64,0,0,0,1.53-.48,3.42,3.42,0,0,0,1.11-1.32,4.11,4.11,0,0,0,.42-1.85V39.54a3.8,3.8,0,0,0-.46-2.11,1.76,1.76,0,0,0-1.56-.66v-.66q1,.09,2,.09a20.67,20.67,0,0,0,4.6-.43V49a3.79,3.79,0,0,0,.45,2.11" transform="translate(-20.54 -21.54)"/><path class="cls-3" d="M216.58,35.68a6.16,6.16,0,0,1,2.11.31,3.28,3.28,0,0,1,1.35.91,3.62,3.62,0,0,1,.75,1.55A11.27,11.27,0,0,1,221,41v8.48a3.73,3.73,0,0,0,.2,1.37,1.23,1.23,0,0,0,.63.69,2.86,2.86,0,0,0,1.18.2v.66q-3.14-.12-4.15-.12t-4.11.12v-.66a2.15,2.15,0,0,0,1-.2,1.15,1.15,0,0,0,.53-.69,4.55,4.55,0,0,0,.16-1.37v-9.8a3.65,3.65,0,0,0-.42-2,1.67,1.67,0,0,0-1.53-.66,2.77,2.77,0,0,0-1.58.48,3.29,3.29,0,0,0-1.13,1.31,4.13,4.13,0,0,0-.41,1.85v8.77a4.36,4.36,0,0,0,.17,1.37,1.18,1.18,0,0,0,.54.69,2.11,2.11,0,0,0,1,.2v.66q-2.89-.12-3.91-.12t-4.35.12v-.66a2.93,2.93,0,0,0,1.19-.2,1.2,1.2,0,0,0,.63-.69,3.88,3.88,0,0,0,.19-1.37V39.54a3.86,3.86,0,0,0-.45-2.11,1.76,1.76,0,0,0-1.57-.65v-.66q1,.09,2,.09a20.42,20.42,0,0,0,4.6-.43V38.6q1.43-2.92,5.17-2.92" transform="translate(-20.54 -21.54)"/><path class="cls-3" d="M241,51.21a1.89,1.89,0,0,0,.83.53v.66q-2.52-.12-3.31-.12-1,0-4.06.12v-.66c.63,0,.94-.2.94-.6a1,1,0,0,0-.15-.48L232.13,45a2,2,0,0,0-.65-.73,1.91,1.91,0,0,0-.88-.24v5.41a4,4,0,0,0,.18,1.37,1.2,1.2,0,0,0,.59.69,2.58,2.58,0,0,0,1.12.2v.66q-3.14-.12-4.09-.12T224,52.4v-.66a2.87,2.87,0,0,0,1.18-.2,1.24,1.24,0,0,0,.63-.69,3.77,3.77,0,0,0,.2-1.37v-18a3.8,3.8,0,0,0-.45-2.11,1.77,1.77,0,0,0-1.56-.65v-.66q1,.09,2,.09a19.87,19.87,0,0,0,4.6-.45V43.43a4,4,0,0,0,1.08-.24,2.32,2.32,0,0,0,.82-.56l2.38-2.32a2.93,2.93,0,0,0,1.06-1.92,1.33,1.33,0,0,0-.68-1.16,3.49,3.49,0,0,0-1.76-.48v-.63q1.75.09,3.69.09,2.58,0,3.69-.09v.63a8.52,8.52,0,0,0-3.94,2.43l-2,2.09,5.29,8.83a9,9,0,0,0,.8,1.11" transform="translate(-20.54 -21.54)"/><path class="cls-3" d="M247.07,44.14a8.92,8.92,0,0,0,.58,3.47,4.48,4.48,0,0,0,1.52,2,3.46,3.46,0,0,0,2,.64,4.74,4.74,0,0,0,4.17-2.52l.55.18a7.85,7.85,0,0,1-1.24,2.41,6.51,6.51,0,0,1-2.12,1.82,6,6,0,0,1-2.93.7,7.62,7.62,0,0,1-3.81-.92,6.24,6.24,0,0,1-2.55-2.81,10.68,10.68,0,0,1-.92-4.68,10.67,10.67,0,0,1,1-4.82A6.76,6.76,0,0,1,246,36.66a8,8,0,0,1,4-1q5.92,0,5.92,7h-8.85c0,.31,0,.8,0,1.48M251.49,38q-.55-1.63-1.65-1.63A2.17,2.17,0,0,0,248,37.73a10.92,10.92,0,0,0-.92,4.33H252a12.32,12.32,0,0,0-.5-4.09" transform="translate(-20.54 -21.54)"/><path class="cls-3" d="M264.4,50.85a1.2,1.2,0,0,0,.63.69,2.91,2.91,0,0,0,1.19.2v.66q-3.26-.12-4.22-.12t-4.35.12v-.66a2.86,2.86,0,0,0,1.18-.2,1.24,1.24,0,0,0,.63-.69,3.75,3.75,0,0,0,.2-1.37v-18a3.79,3.79,0,0,0-.46-2.11,1.76,1.76,0,0,0-1.56-.65v-.66q1,.09,2,.09a19.83,19.83,0,0,0,4.6-.45V49.48a3.86,3.86,0,0,0,.19,1.37" transform="translate(-20.54 -21.54)"/><path class="cls-4" d="M41.67,53.42l-.42-3.52a2.16,2.16,0,0,1,1.89-2.39l6.1-.72a2.16,2.16,0,0,1,2.39,1.89L52,52.19a2.16,2.16,0,0,1-1.89,2.39l-6.1.73a2.16,2.16,0,0,1-2.39-1.89m1.54-5.28a1.52,1.52,0,0,0-1.33,1.69l.42,3.52A1.52,1.52,0,0,0,44,54.67l6.1-.73a1.52,1.52,0,0,0,1.33-1.68L51,48.74a1.52,1.52,0,0,0-1.68-1.33Z" transform="translate(-20.54 -21.54)"/><path class="cls-4" d="M50.09,45.91a.32.32,0,0,0,.14-.58c-.13-.09-3.14-2.16-5.85-1.65a4,4,0,0,0-2.63,1.78.32.32,0,1,0,.53.36,3.36,3.36,0,0,1,2.22-1.5c2.44-.46,5.35,1.53,5.37,1.55a.32.32,0,0,0,.22.05" transform="translate(-20.54 -21.54)"/><path class="cls-4" d="M54.6,46a2,2,0,0,0,1-.39l.38-.3c.78-.65,1.67-1.39,3.95-.36a.32.32,0,1,0,.26-.58c-2.64-1.2-3.78-.25-4.62.45l-.35.28a1.53,1.53,0,0,1-1.55.13.32.32,0,0,0-.3.56A2.3,2.3,0,0,0,54.6,46" transform="translate(-20.54 -21.54)"/><path class="cls-4" d="M57.48,57.59h0c1.21-.31,1.54-2.1,1.56-2.17l.07-.36h-.37c-5.43-.15-5.69-4.38-5.7-4.56a.32.32,0,0,0-.64,0s.27,4.78,5.92,5.15c-.15.49-.47,1.18-1,1.31a.32.32,0,0,0,.12.63" transform="translate(-20.54 -21.54)"/><path class="cls-4" d="M34,50.18a20.18,20.18,0,0,0,8.24-14.82c1.6,2.56,6.83,8.91,18.67,7.5l-.07-.63c-14.21,1.69-18.54-8-18.58-8.15l-.67-1.58.06,1.72a19.58,19.58,0,0,1-8,15.45Z" transform="translate(-20.54 -21.54)"/><path class="cls-4" d="M62.53,52.69l.15-.23a14.29,14.29,0,0,1-27.84,5.91,3.92,3.92,0,0,1-1.17-7.72l-.75-6.33a14.25,14.25,0,0,1,7.2-14.14c-.05-1.24-1.56-2.37-1.58-2.38l-1.41-1,1.69.48a4.55,4.55,0,0,1,2.84,2.19A14.28,14.28,0,0,1,61.32,40.94l.56,4.68-.62.14L60.68,41a13.67,13.67,0,0,0-15.17-12,13.53,13.53,0,0,0-3.86,1.05l-.28.13L41.23,30a3.81,3.81,0,0,0-1-1.31,2.85,2.85,0,0,1,.53,1.73v.17l-.15.08a13.62,13.62,0,0,0-7,13.6l.82,6.92-.3.05a3.29,3.29,0,0,0,1,6.5l.27,0,.08.26a13.66,13.66,0,0,0,26.7-5.12Z" transform="translate(-20.54 -21.54)"/><path class="cls-4" d="M50.43,62.64l-.13-.1.05-.16a2.34,2.34,0,0,1,1.51-1.66c1.48-.42,3.23,1,3.31,1l.13.1-.05.16a2.35,2.35,0,0,1-1.51,1.7l-.31.06a4.78,4.78,0,0,1-3-1.15M52,61.18a1.81,1.81,0,0,0-1.13,1.2c.41.31,1.71,1.18,2.74.89A1.81,1.81,0,0,0,54.75,62c-.41-.3-1.71-1.15-2.74-.86" transform="translate(-20.54 -21.54)"/><path class="cls-4" d="M58.23,40.21a.24.24,0,0,0-.06-.47c-8.86,1.05-14.28-7.8-14.34-7.89a.24.24,0,1,0-.41.25c.06.09,5.64,9.21,14.8,8.12" transform="translate(-20.54 -21.54)"/><path class="cls-4" d="M57.73,37.73a.24.24,0,0,0-.06-.47c-7.05.84-10.81-6.45-10.85-6.53a.24.24,0,1,0-.43.22c0,.08,3.95,7.66,11.33,6.79" transform="translate(-20.54 -21.54)"/><path class="cls-4" d="M35.29,44.91a.24.24,0,0,0,.16-.09c4.51-5.73,4-11.07,4-11.3a.24.24,0,0,0-.47,0c0,.05.47,5.38-3.92,11a.24.24,0,0,0,0,.34.24.24,0,0,0,.18,0" transform="translate(-20.54 -21.54)"/><path class="cls-4" d="M54,52l-.42-3.52A2.16,2.16,0,0,1,55.47,46l6.1-.72A2.16,2.16,0,0,1,64,47.2l.42,3.52a2.16,2.16,0,0,1-1.89,2.39l-6.1.73A2.16,2.16,0,0,1,54,52m1.54-5.28a1.52,1.52,0,0,0-1.33,1.69l.42,3.52a1.52,1.52,0,0,0,1.68,1.33l6.1-.73a1.52,1.52,0,0,0,1.33-1.68l-.42-3.52a1.52,1.52,0,0,0-1.68-1.33Z" transform="translate(-20.54 -21.54)"/><rect class="cls-4" x="50.61" y="62" width="4.39" height="0.48" transform="translate(-27.51 -14.88) rotate(-6.77)"/><rect class="cls-4" x="51.7" y="49.3" width="2.3" height="0.73" transform="translate(-26.01 -14.98) rotate(-6.76)"/></g><path class="cls-4" d="M85.56,64.37a2.61,2.61,0,0,1-2,.92A2.58,2.58,0,0,1,82.4,65a3.15,3.15,0,0,1-.95-.74,3.56,3.56,0,0,1-.63-1A3.3,3.3,0,0,1,80.59,62a3.41,3.41,0,0,1,.85-2.27,3,3,0,0,1,1-.71,3.05,3.05,0,0,1,2.73.13,2.59,2.59,0,0,1,.92,1l-.63.44a2,2,0,0,0-.77-.83,2.15,2.15,0,0,0-1.08-.27,1.86,1.86,0,0,0-.89.21,2.18,2.18,0,0,0-.68.56,2.59,2.59,0,0,0-.44.81,2.94,2.94,0,0,0-.15.95,2.75,2.75,0,0,0,.17,1,2.67,2.67,0,0,0,.47.81,2.19,2.19,0,0,0,.71.55,2,2,0,0,0,.89.2,2.44,2.44,0,0,0,1.9-1v-.89H84.17V62h2.08v3.21h-.69Z" transform="translate(-20.54 -21.54)"/><path class="cls-4" d="M88.49,65.24V58.8h2.76A1.75,1.75,0,0,1,92,59a2,2,0,0,1,.62.47,2.25,2.25,0,0,1,.4.66,2,2,0,0,1,.15.75,2.21,2.21,0,0,1-.1.65,2,2,0,0,1-.27.57,1.81,1.81,0,0,1-.43.44,1.66,1.66,0,0,1-.56.26l1.56,2.47h-.93L91,62.92H89.3v2.31Zm.82-3h2a1,1,0,0,0,.46-.11,1.09,1.09,0,0,0,.35-.29,1.44,1.44,0,0,0,.23-.43,1.6,1.6,0,0,0,.08-.51,1.38,1.38,0,0,0-.1-.51,1.52,1.52,0,0,0-.25-.43,1.16,1.16,0,0,0-.37-.29,1,1,0,0,0-.45-.1H89.3Z" transform="translate(-20.54 -21.54)"/><path class="cls-4" d="M97.4,58.8h.69l2.63,6.44h-.87l-.76-1.89h-2.7l-.75,1.89h-.87Zm1.51,3.92-1.16-3-1.2,3Z" transform="translate(-20.54 -21.54)"/><path class="cls-4" d="M102.58,65.24V58.8h2.69a1.75,1.75,0,0,1,.78.18,2,2,0,0,1,.62.47,2.25,2.25,0,0,1,.4.66,2,2,0,0,1,.15.75,2.22,2.22,0,0,1-.14.77,2.12,2.12,0,0,1-.39.66,1.87,1.87,0,0,1-.6.46,1.73,1.73,0,0,1-.78.17H103.4v2.31Zm.82-3h1.88a1,1,0,0,0,.46-.1,1,1,0,0,0,.35-.29,1.42,1.42,0,0,0,.23-.43,1.62,1.62,0,0,0,.08-.52,1.44,1.44,0,0,0-.1-.53,1.41,1.41,0,0,0-.25-.43,1.12,1.12,0,0,0-.37-.28,1.05,1.05,0,0,0-.45-.1H103.4Z" transform="translate(-20.54 -21.54)"/><path class="cls-4" d="M114.41,58.8v6.44h-.82V62.31H110v2.93h-.82V58.8H110v2.78h3.55V58.8Z" transform="translate(-20.54 -21.54)"/><path class="cls-4" d="M116.94,65.24V58.8h.82v6.44Z" transform="translate(-20.54 -21.54)"/><path class="cls-4" d="M119.88,62a3.45,3.45,0,0,1,.2-1.16,3.21,3.21,0,0,1,.6-1,3,3,0,0,1,1-.74,2.9,2.9,0,0,1,1.3-.28,2.71,2.71,0,0,1,1.48.39,2.43,2.43,0,0,1,.92,1l-.64.42a1.88,1.88,0,0,0-.35-.52,1.79,1.79,0,0,0-.44-.34,1.9,1.9,0,0,0-.49-.18,2.39,2.39,0,0,0-.5-.05,2,2,0,0,0-.95.22,2.19,2.19,0,0,0-.69.58,2.51,2.51,0,0,0-.42.81,3,3,0,0,0-.14.9,2.78,2.78,0,0,0,.17,1,2.66,2.66,0,0,0,.47.81,2.27,2.27,0,0,0,.71.56,1.93,1.93,0,0,0,.89.21,2.27,2.27,0,0,0,.52-.06,1.92,1.92,0,0,0,.51-.2,2.2,2.2,0,0,0,.46-.35,1.73,1.73,0,0,0,.35-.51l.68.37a2,2,0,0,1-.43.64,2.72,2.72,0,0,1-.63.47,3.18,3.18,0,0,1-.74.29,3.07,3.07,0,0,1-.76.1,2.58,2.58,0,0,1-1.22-.29,3.24,3.24,0,0,1-1-.76,3.46,3.46,0,0,1-.63-1.06A3.42,3.42,0,0,1,119.88,62Z" transform="translate(-20.54 -21.54)"/><path class="cls-4" d="M130.77,65.24V58.8H133a3.38,3.38,0,0,1,1.36.25,2.77,2.77,0,0,1,1,.69,2.87,2.87,0,0,1,.59,1,3.93,3.93,0,0,1,.19,1.25,3.84,3.84,0,0,1-.22,1.33,2.85,2.85,0,0,1-.63,1,2.8,2.8,0,0,1-1,.65,3.42,3.42,0,0,1-1.28.23ZM135.29,62a3.21,3.21,0,0,0-.15-1,2.15,2.15,0,0,0-.44-.78,2.08,2.08,0,0,0-.72-.51,2.41,2.41,0,0,0-1-.19h-1.42v5H133a2.42,2.42,0,0,0,1-.19,2,2,0,0,0,.72-.53,2.32,2.32,0,0,0,.44-.79A3.19,3.19,0,0,0,135.29,62Z" transform="translate(-20.54 -21.54)"/><path class="cls-4" d="M142.64,64.51v.73h-4.37V58.8h4.29v.73h-3.47v2.09h3v.68h-3v2.22Z" transform="translate(-20.54 -21.54)"/><path class="cls-4" d="M148.53,60.15a1.35,1.35,0,0,0-.29-.24,2.58,2.58,0,0,0-.41-.21,2.89,2.89,0,0,0-.49-.15,2.6,2.6,0,0,0-.56-.06,1.75,1.75,0,0,0-1.1.28.94.94,0,0,0-.35.77.86.86,0,0,0,.1.44.82.82,0,0,0,.31.29,2.37,2.37,0,0,0,.53.21l.75.19a7.86,7.86,0,0,1,.9.25,2.64,2.64,0,0,1,.69.35,1.4,1.4,0,0,1,.44.51,1.63,1.63,0,0,1,.15.73,1.68,1.68,0,0,1-.18.8,1.61,1.61,0,0,1-.49.56,2.14,2.14,0,0,1-.74.33,3.87,3.87,0,0,1-.92.1,4.27,4.27,0,0,1-1.41-.23,3.93,3.93,0,0,1-1.21-.68l.39-.69A2.14,2.14,0,0,0,145,64a3.05,3.05,0,0,0,.53.28,3.89,3.89,0,0,0,.63.2,3.2,3.2,0,0,0,.71.08,2,2,0,0,0,1.07-.24.91.91,0,0,0,.26-1.19,1,1,0,0,0-.36-.32,2.79,2.79,0,0,0-.58-.24l-.79-.21a7.8,7.8,0,0,1-.86-.25,2.34,2.34,0,0,1-.62-.33,1.24,1.24,0,0,1-.38-.46,1.54,1.54,0,0,1-.13-.65,1.84,1.84,0,0,1,.17-.82,1.72,1.72,0,0,1,.48-.6,2.1,2.1,0,0,1,.73-.37,3.33,3.33,0,0,1,3,.61Z" transform="translate(-20.54 -21.54)"/><path class="cls-4" d="M151.27,65.24V58.8h.82v6.44Z" transform="translate(-20.54 -21.54)"/><path class="cls-4" d="M159.17,64.37a2.61,2.61,0,0,1-2,.92A2.58,2.58,0,0,1,156,65a3.15,3.15,0,0,1-.95-.74,3.56,3.56,0,0,1-.63-1A3.3,3.3,0,0,1,154.2,62a3.41,3.41,0,0,1,.85-2.27,3,3,0,0,1,1-.71,3.05,3.05,0,0,1,2.73.13,2.59,2.59,0,0,1,.92,1l-.63.44a2,2,0,0,0-.77-.83,2.15,2.15,0,0,0-1.08-.27,1.86,1.86,0,0,0-.89.21,2.18,2.18,0,0,0-.68.56,2.59,2.59,0,0,0-.44.81A2.94,2.94,0,0,0,155,62a2.75,2.75,0,0,0,.17,1,2.67,2.67,0,0,0,.47.81,2.19,2.19,0,0,0,.71.55,2,2,0,0,0,.89.2,2.44,2.44,0,0,0,1.9-1v-.89h-1.39V62h2.08v3.21h-.69Z" transform="translate(-20.54 -21.54)"/><path class="cls-4" d="M162.91,60.32v4.92h-.82V58.8h.63l4,5v-5h.82v6.43h-.69Z" transform="translate(-20.54 -21.54)"/><path class="cls-4" d="M174.45,64.51v.73h-4.37V58.8h4.29v.73h-3.47v2.09h3v.68h-3v2.22Z" transform="translate(-20.54 -21.54)"/><path class="cls-4" d="M176.56,65.24V58.8h2.76a1.75,1.75,0,0,1,.78.18,2,2,0,0,1,.62.47,2.25,2.25,0,0,1,.4.66,2,2,0,0,1,.15.75,2.21,2.21,0,0,1-.1.65,2,2,0,0,1-.27.57,1.81,1.81,0,0,1-.43.44,1.66,1.66,0,0,1-.56.26l1.56,2.47h-.93l-1.47-2.31h-1.71v2.31Zm.82-3h2a1,1,0,0,0,.46-.11,1.09,1.09,0,0,0,.35-.29,1.44,1.44,0,0,0,.23-.43,1.6,1.6,0,0,0,.08-.51,1.38,1.38,0,0,0-.1-.51,1.52,1.52,0,0,0-.25-.43,1.16,1.16,0,0,0-.37-.29,1,1,0,0,0-.45-.1h-1.9Z" transform="translate(-20.54 -21.54)"/><path class="cls-4" d="M191.11,65.24l-.67-.7a2.81,2.81,0,0,1-.88.58,2.66,2.66,0,0,1-1,.2,2.44,2.44,0,0,1-.83-.14,2.09,2.09,0,0,1-.66-.38,1.74,1.74,0,0,1-.44-.57,1.71,1.71,0,0,1-.05-1.31,1.92,1.92,0,0,1,.28-.5,3,3,0,0,1,.4-.42,5.31,5.31,0,0,1,.48-.37q-.22-.24-.37-.44a2.79,2.79,0,0,1-.25-.38,1.71,1.71,0,0,1-.14-.34,1.19,1.19,0,0,1,0-.33,1.33,1.33,0,0,1,.13-.58,1.43,1.43,0,0,1,.35-.46,1.61,1.61,0,0,1,.53-.3,1.93,1.93,0,0,1,.66-.11,2,2,0,0,1,.61.09,1.51,1.51,0,0,1,.5.26,1.25,1.25,0,0,1,.34.42,1.2,1.2,0,0,1,.12.54,1.25,1.25,0,0,1-.1.51,1.74,1.74,0,0,1-.28.44,2.61,2.61,0,0,1-.42.39l-.52.36,1.64,1.72a3.12,3.12,0,0,0,.27-.71,3.41,3.41,0,0,0,.1-.82h.66a4.35,4.35,0,0,1-.15,1.1,3.45,3.45,0,0,1-.4.92l1.24,1.3Zm-2.5-.54a1.79,1.79,0,0,0,.76-.16,2.11,2.11,0,0,0,.64-.45l-1.83-1.93a3.58,3.58,0,0,0-.69.64,1.17,1.17,0,0,0-.27.76,1,1,0,0,0,.12.49,1.09,1.09,0,0,0,.31.36,1.45,1.45,0,0,0,.44.22A1.74,1.74,0,0,0,188.61,64.69Zm-1-4.54a.62.62,0,0,0,0,.2,1,1,0,0,0,.11.22,3,3,0,0,0,.21.29q.14.17.35.39a5,5,0,0,0,.76-.58.84.84,0,0,0,.29-.62.66.66,0,0,0-.24-.52.88.88,0,0,0-.6-.2.94.94,0,0,0-.67.24A.77.77,0,0,0,187.64,60.15Z" transform="translate(-20.54 -21.54)"/><path class="cls-4" d="M197.26,65.24V58.8h.82v6.44Z" transform="translate(-20.54 -21.54)"/><path class="cls-4" d="M200.62,65.24V58.8h.82v5.71H205v.73Z" transform="translate(-20.54 -21.54)"/><path class="cls-4" d="M206.91,65.24V58.8h.82v5.71h3.59v.73Z" transform="translate(-20.54 -21.54)"/><path class="cls-4" d="M215.61,64.55a1.82,1.82,0,0,0,.93-.22,1.72,1.72,0,0,0,.59-.57,2.34,2.34,0,0,0,.31-.8,4.62,4.62,0,0,0,.09-.91V58.8h.82v3.26a5,5,0,0,1-.15,1.24,3,3,0,0,1-.48,1,2.3,2.3,0,0,1-.85.7,3.23,3.23,0,0,1-2.56,0,2.35,2.35,0,0,1-.85-.72,2.92,2.92,0,0,1-.46-1,5.12,5.12,0,0,1-.14-1.2V58.8h.82v3.26a4.47,4.47,0,0,0,.1.93,2.34,2.34,0,0,0,.32.79,1.71,1.71,0,0,0,.59.56A1.81,1.81,0,0,0,215.61,64.55Z" transform="translate(-20.54 -21.54)"/><path class="cls-4" d="M224.59,60.15a1.35,1.35,0,0,0-.29-.24,2.58,2.58,0,0,0-.41-.21,2.89,2.89,0,0,0-.49-.15,2.6,2.6,0,0,0-.56-.06,1.75,1.75,0,0,0-1.1.28.94.94,0,0,0-.35.77.86.86,0,0,0,.1.44.82.82,0,0,0,.31.29,2.37,2.37,0,0,0,.53.21l.75.19a7.86,7.86,0,0,1,.9.25,2.64,2.64,0,0,1,.69.35,1.4,1.4,0,0,1,.44.51,1.63,1.63,0,0,1,.15.73,1.68,1.68,0,0,1-.18.8,1.61,1.61,0,0,1-.49.56,2.14,2.14,0,0,1-.74.33,3.87,3.87,0,0,1-.92.1,4.27,4.27,0,0,1-1.41-.23,3.93,3.93,0,0,1-1.21-.68l.39-.69a2.14,2.14,0,0,0,.38.31,3.05,3.05,0,0,0,.53.28,3.89,3.89,0,0,0,.63.2,3.2,3.2,0,0,0,.71.08,2,2,0,0,0,1.07-.24.91.91,0,0,0,.26-1.19,1,1,0,0,0-.36-.32,2.79,2.79,0,0,0-.58-.24l-.79-.21a7.8,7.8,0,0,1-.86-.25,2.34,2.34,0,0,1-.62-.33,1.24,1.24,0,0,1-.38-.46,1.54,1.54,0,0,1-.13-.65,1.84,1.84,0,0,1,.17-.82,1.72,1.72,0,0,1,.48-.6,2.1,2.1,0,0,1,.73-.37,3.33,3.33,0,0,1,3,.61Z" transform="translate(-20.54 -21.54)"/><path class="cls-4" d="M232,59.52h-2.22v5.71h-.82V59.52h-2.22V58.8H232Z" transform="translate(-20.54 -21.54)"/><path class="cls-4" d="M233.89,65.24V58.8h2.76a1.75,1.75,0,0,1,.78.18,2,2,0,0,1,.62.47,2.25,2.25,0,0,1,.4.66,2,2,0,0,1,.15.75,2.21,2.21,0,0,1-.1.65,2,2,0,0,1-.27.57,1.81,1.81,0,0,1-.43.44,1.66,1.66,0,0,1-.56.26l1.56,2.47h-.93l-1.47-2.31h-1.71v2.31Zm.82-3h2a1,1,0,0,0,.46-.11,1.09,1.09,0,0,0,.35-.29,1.44,1.44,0,0,0,.23-.43,1.6,1.6,0,0,0,.08-.51,1.38,1.38,0,0,0-.1-.51,1.52,1.52,0,0,0-.25-.43,1.16,1.16,0,0,0-.37-.29,1,1,0,0,0-.45-.1h-1.9Z" transform="translate(-20.54 -21.54)"/><path class="cls-4" d="M242.81,58.8h.69l2.63,6.44h-.87l-.76-1.89h-2.7L241,65.24h-.87Zm1.51,3.92-1.16-3-1.2,3Z" transform="translate(-20.54 -21.54)"/><path class="cls-4" d="M252,59.52H249.8v5.71H249V59.52h-2.22V58.8H252Z" transform="translate(-20.54 -21.54)"/><path class="cls-4" d="M256.37,65.28a2.74,2.74,0,0,1-1.24-.28,3,3,0,0,1-1-.73,3.34,3.34,0,0,1-.62-1,3.46,3.46,0,0,1-.22-1.21,3.35,3.35,0,0,1,.23-1.23,3.41,3.41,0,0,1,.64-1,3.08,3.08,0,0,1,1-.72,2.77,2.77,0,0,1,1.21-.27,2.65,2.65,0,0,1,1.23.29,3.17,3.17,0,0,1,1,.75,3.47,3.47,0,0,1,.83,2.24,3.35,3.35,0,0,1-.23,1.23,3.4,3.4,0,0,1-.63,1,3.06,3.06,0,0,1-1,.72A2.76,2.76,0,0,1,256.37,65.28ZM254.16,62a2.87,2.87,0,0,0,.16.95,2.61,2.61,0,0,0,.45.81,2.17,2.17,0,0,0,.7.56,2,2,0,0,0,.91.21,1.9,1.9,0,0,0,.93-.22,2.26,2.26,0,0,0,.69-.58,2.6,2.6,0,0,0,.44-.81,2.91,2.91,0,0,0,.15-.92,2.87,2.87,0,0,0-.16-.95,2.53,2.53,0,0,0-.45-.81,2.27,2.27,0,0,0-.7-.56,1.92,1.92,0,0,0-.89-.21,1.94,1.94,0,0,0-.93.22,2.24,2.24,0,0,0-.69.57,2.61,2.61,0,0,0-.44.81A2.85,2.85,0,0,0,254.16,62Z" transform="translate(-20.54 -21.54)"/><path class="cls-4" d="M261.54,65.24V58.8h2.76a1.75,1.75,0,0,1,.78.18,2,2,0,0,1,.62.47,2.25,2.25,0,0,1,.4.66,2,2,0,0,1,.15.75,2.21,2.21,0,0,1-.1.65,2,2,0,0,1-.27.57,1.81,1.81,0,0,1-.43.44,1.66,1.66,0,0,1-.56.26l1.56,2.47h-.93l-1.47-2.31h-1.71v2.31Zm.82-3h2a1,1,0,0,0,.46-.11,1.09,1.09,0,0,0,.35-.29,1.44,1.44,0,0,0,.23-.43,1.6,1.6,0,0,0,.08-.51,1.38,1.38,0,0,0-.1-.51,1.52,1.52,0,0,0-.25-.43,1.16,1.16,0,0,0-.37-.29,1,1,0,0,0-.45-.1h-1.9Z" transform="translate(-20.54 -21.54)"/></svg>